<?xml version="1.0" encoding="UTF-8"?>
<svg id="Layer_2" data-name="Layer 2" xmlns="http://www.w3.org/2000/svg" xmlns:xlink="http://www.w3.org/1999/xlink" viewBox="0 0 272.34 110.8">
  <defs>
    <style>
      .cls-1 {
        fill: none;
      }

      .cls-2 {
        fill: #fef1e4;
      }

      .cls-3 {
        clip-path: url(#clippath);
      }
    </style>
    <clipPath id="clippath">
      <rect class="cls-1" width="272.34" height="110.8"/>
    </clipPath>
  </defs>
  <g id="Layer_1-2" data-name="Layer 1">
    <g class="cls-3">
      <path class="cls-2" d="M260.49,101.61c-.03.31.47.86.77.89.16.02,1.08-.73,1.11-1.24.02-.26-.04-.48-.33-.52-.33-.02-1.53.47-1.56.88M262.1,98.81c-.03.39.36.95.74.98.22.03.25-.15.26-.33.15-1.78,4.49-6.09,4.52-6.4.04-.45-.35-.92-.8-.97-.35-.03-.95.84-1.38,1.51-.69,1.08-3.26,4.36-3.33,5.21M254.31,103.17c-.39.66-.28,1.18.61,1.1.39-.04.41-.42.51-.67.73-1.53,4.35-6.55,5.41-8.2,1.48-.2,2.69-.27,4.12-.33.42-.01.76-.87-.35-.86-1.03,0-1.85.06-2.91.1.29-.6,1.2-1.39,1.17-1.84-.02-.39-.39-.69-.78-.67-.58.02-.79.63-1.03,1.06-.45.77-.5.83-.99,1.57-.62.04-4.51.53-4.7.71-.42.39-.04,1.29.37,1.18.98-.26,2.53-.68,3.55-.79-.65,1.14-3.94,5.87-4.97,7.64M250.42,102.38c-.06-.04-.09-.1-.09-.17-.02-.19.49-1.09.61-1.3l.51.55c-.26.38-.64.68-1.03.92M252.15,100.69c-.2.03-.38-.3-.39-.46-.1-.81,1.28-2.23,2.02-2.44.08.6-1.17,2.51-1.62,2.9M257.36,98.5c-.96.84-2.63,2.15-3.87,2.33.62-.73,1.56-2.39,1.46-3.13-.08-.62-.73-1.13-1.35-1.05-1.76.22-4.61,4.07-4.39,5.8.06.55.79,1.01,1.33.93.7-.08,1.58-.98,2.01-1.48,2,.07,4.6-1.76,5.41-2.87.44-.59.24-1.24-.59-.53M239.81,102.97c.03.42.41.91.85.88.3-.02.52-.38.64-.62,0-.88,3.73-4.5,4.8-4.57h.03c-.21.89-.94,1.63-.88,2.61.05.77.95,1.62,1.73,1.57.82-.05,3.54-2.19,3.79-3.09.03-.14-.09-.39-.27-.38-.07,0-2.57,2.21-3.73,2.29-.26.02-.37-.11-.39-.37-.05-.9,1.04-1.94.99-2.86-.03-.51-.57-.99-1.09-.96-.58.03-1.1.42-1.61.65-.28-.19-.69-.62-1.01-.6-.31.02-.4.24-.52.49-.74,1.65-2.65,3.56-3.34,4.95M231.6,104.16c.04.35.45.64.77.6.34-.03.58-.45.71-.73,0-.26,2.24-2.56,2.55-2.59.01.19-.07.36-.05.57.07.96.9,1.61,1.85,1.52,1.09-.09,5.33-2.81,5.22-4.04,0-.08-.04-.21-.16-.19-1.29.88-3.85,3.03-5.03,3.13-.31.03-.75-.05-.77-.45-.13-1.41,1.77-2.65,2.56-2.97,1.02-.43.45-1.3-.1-1.24-1.06.09-4.76,3.51-4.91,3.53-.01,0-.03,0-.03-.01,0-.14.46-.87,1.13-1.83.36-.52.88-.97,1.29-1.47,1.1-1.31,2.6-3.09,3.22-3.94.35-.47-.26-1.15-.77-1.09-.73.07-2.64,3-3.74,4.79-1.1,1.78-2.3,3.51-3.41,5.28-.21.32-.37.74-.34,1.13M223.42,99.67c.04.39-.84,1.26-1.22,1.31-.11.02-.37-.02-.39-.17-.03-.27,1.2-1.13,1.48-1.17l.12.03ZM221.32,103.87c-.32.03-1.12-.08-1.17-.5-.03-.23.65-1.6.86-1.69.46.19.93.4,1.44.34.66-.08,2.05-1.62,1.97-2.31-.1-.72-.52-1.44-1.35-1.34-1.38.18-4.16,3.57-3.98,4.98.13,1.07,1.39,1.75,2.4,1.64,1.93-.24,4.25-2.13,5.66-3.43.17-.16.42-.8.4-1.02,0-.07-.05-.12-.13-.11-.31.05-3.77,3.15-6.09,3.44M209.12,105.43c.08.59.38.86.71.84.26-.01.53-.22.69-.58.2-.46.47-.99.76-1.53,1.06-1.39,3.47-3.57,4.29-3.62h.04c-.21.89-.95,1.63-.89,2.61.05.77.96,1.62,1.73,1.57.82-.05,3.55-2.19,3.79-3.1.03-.12-.08-.36-.26-.35-.07,0-2.57,2.2-3.73,2.27-.24.01-.37-.11-.39-.37-.06-.9,1.04-1.94.99-2.86-.03-.51-.56-.99-1.07-.96-.52.03-1.57.65-2.18.98.35-.51.55-.78.82-1.12,1.19-1.51,2.5-2.84,2.94-3.7.25-.52-.3-1.13-.81-1.06-.75.11-2.48,3.26-3.74,5.2l-2.34,3.47c-.47.58-.88,1.14-1.13,1.62-.19.2-.26.34-.21.67M204.44,106.22c-.39.66-.28,1.18.61,1.1.39-.04.41-.42.51-.67.73-1.53,4.35-6.56,5.41-8.2,1.48-.2,2.69-.27,4.12-.33.42-.01.76-.87-.35-.86-1.03,0-1.85.06-2.92.1.29-.6,1.2-1.39,1.17-1.84-.02-.39-.39-.69-.78-.67-.58.02-.79.63-1.03,1.06-.45.77-.5.83-.99,1.58-.62.04-4.51.53-4.7.71-.42.39-.04,1.29.37,1.18.99-.26,2.53-.68,3.55-.79-.65,1.14-3.94,5.87-4.97,7.63"/>
      <path class="cls-2" d="M249.11,86.81c-.05-.86,2.43-4.07,3.77-4.23.03,0,.09,0,.1.05.03.34-3.03,3.78-3.87,4.19M254.1,81.66c-.15.02-.28.12-.42.13-.24.03-.64-.37-1.18-.31-1.53.19-4.63,4.04-4.46,5.51.06.51.63,1,1.14.94.94-.11,2.53-2.17,3.63-3.5.22-.24.39-.42.51-.52-.12.24-.28.52-.45.83-.92,1.5-2.66,4.06-2.84,4.26-.71.8-2.85,3.11-2.78,3.8.03.32.54.81.87.77.87-.08,3.22-4.59,4.44-5.83.62-.63,1.4-1.19,2.05-1.83-.01-.22-.08-.47-.34-.45-.26.03-.49.21-.73.27.26-.48.89-1.46,1.26-2.36.13-.25.24-.45.29-.56.09-.22-.17-.58-.46-.84-.06-.06-.12-.1-.18-.14-.14-.11-.28-.19-.35-.18M238.72,87.89c.03.42.41.91.85.88.3-.02.52-.38.64-.62,0-.88,3.73-4.5,4.8-4.57h.03c-.22.89-.94,1.62-.88,2.61.05.77.95,1.62,1.73,1.57.82-.05,3.54-2.19,3.79-3.08.03-.14-.09-.39-.27-.38-.07,0-2.57,2.22-3.73,2.28-.26.02-.37-.11-.39-.37-.05-.9,1.04-1.94.99-2.86-.03-.51-.57-.99-1.09-.96-.58.04-1.1.42-1.61.65-.28-.18-.69-.62-1.01-.6-.31.02-.4.24-.52.49-.74,1.65-2.65,3.56-3.34,4.95M234.7,86.85c.05.88.6,1.94,1.61,1.87,1.51-.09,3.78-2.1,5.08-3.77.1-.11.45-.89.14-.87-.09,0-.25.1-.49.3-1.57,1.29-3.77,3.14-4.57,3.19-.38.02-.67.01-.7-.43-.05-.9,1.91-3.04,2.74-3.37.26-.11.48-.34.46-.65-.02-.36-.55-.78-.91-.76-.92.06-3.43,3.46-3.36,4.5M239.59,82.01c.19-.01.43-.12.7-.33.53-.4.6-.54.54-1.05-.04-.35-.08-.48-.26-.47-.09,0-.23.05-.42.15-.22.11-.53.22-.68.23-.34.02-.69.25-.68.45.02.39.32,1.05.79,1.02M225.93,94.37c.03.32.52.82.86.79.89-.05,3.4-4.52,4.65-5.73.65-.62,1.43-1.16,2.11-1.79-.01-.2-.08-.47-.34-.45-.26.03-.49.19-.73.26.34-.63,1.77-2.83,1.74-3.39-.04-.35-.37-.99-.74-.96-.23.03-.41.21-.56.37-1.5,1.57-3.26,3.34-5.04,4.5h0c-.03-.27,1.79-3.1,2.56-3.47.22-.09.39-.24.36-.51-.03-.32-.52-.85-.87-.81-.57.05-3.54,4.38-3.44,5.38.04.47.63.99,1.11.95,1.2-.13,4.3-3.81,4.93-4.29-.14.41-3.42,5.19-3.64,5.43-.72.79-3,3.05-2.96,3.74M221.44,90.03c-.39.66-.28,1.18.61,1.1.39-.04.41-.42.51-.67.73-1.53,4.35-6.56,5.41-8.2,1.48-.2,2.69-.27,4.12-.33.42-.01.76-.87-.35-.86-1.03,0-1.85.06-2.91.1.29-.6,1.2-1.39,1.17-1.84-.02-.39-.39-.69-.79-.67-.58.02-.79.63-1.03,1.06-.45.77-.5.83-.99,1.57-.62.04-4.51.53-4.7.71-.42.39-.04,1.29.37,1.18.98-.26,2.53-.68,3.55-.78-.65,1.14-3.94,5.87-4.97,7.63M213.93,85.11c.04.39-.84,1.26-1.22,1.31-.11.02-.37-.02-.39-.17-.03-.27,1.2-1.13,1.49-1.17l.12.03ZM211.83,89.31c-.32.03-1.12-.08-1.17-.5-.03-.23.65-1.6.86-1.69.46.19.93.4,1.44.34.66-.08,2.05-1.63,1.97-2.31-.1-.72-.52-1.44-1.35-1.34-1.38.18-4.16,3.57-3.98,4.98.13,1.07,1.39,1.75,2.4,1.64,1.93-.24,4.25-2.12,5.66-3.43.17-.16.43-.8.4-1.02,0-.07-.05-.12-.13-.11-.31.05-3.77,3.15-6.09,3.44M203.97,89.95c1.35-2.23,2.42-3.6,5.08-4.19.15-.04.25-.07.33-.07.11,0,.19.03.31.13.07.06.18.1.3.09.26-.02.53-.18.47-.54-.08-.51-.6-.6-1.12-.57-.35.02-.71.11-.91.15-.56.13-.85.2-1,.21-.31.02-.07-.2-.36-.55-.16-.19-.34-.26-.5-.25-.43.03-.83.62-1.01.97-.65,1.23-1.6,2.45-2.39,3.59-.31.44-1,1.33-.43,1.78.13.1.25.15.37.14.38-.02.67-.58.85-.89M196.6,90.26s-.06-.01-.06-.05c-.09-.71,3-4.3,3.86-4.35.07,0,.12.02.13.09.08.62-3.34,4.24-3.93,4.31M204.34,87.17c-.95.86-2.15,2.19-2.88,2.27-.33.05-.48-.15-.51-.38-.11-.86,1.13-2.75,1.62-3.25.57-.58-.01-1.13-.54-1.06-.25.03-.43.22-.63.47-.16-.13-.54-.56-1.16-.48-1.77.22-5.12,4.38-4.95,5.79.06.58.76.87,1.33.81,1.18-.14,2.38-1.73,3.14-2.63-.1,1.17.92,1.81,1.83,1.75,1.17-.07,2.59-1.79,3.57-2.94.48-.57.39-.85.06-.83-.22.01-.54.17-.88.46"/>
      <path class="cls-2" d="M204.77,110.2c16.58-2.32,33.16-4.35,49.73-5.51,5.52-.32,11.05-.82,16.55-.11.08.01.13.14.12.28-.01.15-.08.25-.15.25,0,0-2.06-.18-2.06-.19-15.84.12-31.74,2.41-47.61,3.99l-16.57,1.88c-.09,0-.16-.12-.15-.28,0-.16.07-.3.16-.32"/>
      <path class="cls-2" d="M111.61,54.55c2.43-4.97,7.89-9.84,10.81-9.84.88,0,.97.78.68,1.56-1.07,2.73-5.46,6.82-11.5,8.28M133.72,55.33c.78-.97.78-2.24.39-3.41-.19-.58-.59-.58-.98-.1-2.73,3.51-9.84,11.5-18.12,11.5-3.21,0-4.77-2.04-4.58-4.77,0-.58.1-1.17.29-1.75,10.33.39,18.51-5.65,18.9-11.01.19-2.83-1.56-4.77-5.36-4.77-10.81,0-22.21,11.11-22.21,19.78,0,4.87,3.41,8.38,9.64,8.38,10.81,0,18.8-9.64,22.02-13.83M106.64,55.33c.68-.97.88-2.14.39-3.41-.2-.49-.58-.58-.97-.1-4.29,5.46-11.79,10.62-16.85,14.81,4.97-7.11,9.45-13.44,11.59-17.05.58-.97.68-1.95.39-2.73-.29-.78-1.17-2.05-1.95-2.73-.49-.39-.78-.29-1.17.19-4.68,5.94-13.15,16.56-17.63,16.56-.68,0-1.07-.29-1.17-.88-.1-3.02,5.55-9.94,8.28-14.12.88-1.46.68-2.24.29-3.31-.29-.88-.88-1.75-1.56-2.43-.39-.39-.68-.39-1.07,0-6.24,6.23-15.1,16.46-15.1,22.89,0,2.82,1.66,4.68,4.48,4.68,5.16,0,10.71-4.77,15-9.45-6.82,8.28-16.95,19.68-22.41,28.84-3.31,5.45-3.7,7.89-2.53,9.94.58.97,1.46,1.85,2.34,2.34.88.49,1.27.29,1.75-.58,4.19-8.38,8.38-15.2,15.29-22.7,7.01-7.6,16.27-12.76,22.6-20.75M76.73,55.33c.68-.97.88-2.34.29-3.41-.29-.58-.49-.58-.88-.1-3.12,3.99-8.77,9.84-12.47,9.84-.58,0-.97-.39-.97-.97,0-1.36,1.75-3.6,3.02-5.75.88-1.56.1-2.92-.68-3.9s-1.46-.88-2.14-.19c-1.46,1.46-3.41,3.8-5.45,5.65-2.83,2.73-5.85,4.77-7.79,4.77-.88,0-1.56-.39-1.56-1.75,0-5.65,10.81-16.17,14.51-16.17.39,0,.58.19.58.49,0,.88-.68,1.85-.68,2.82,0,1.17.88,2.14,3.12,1.95,2.83-.29,4.77-3.31,4.87-5.75,0-1.56-1.56-3.02-4.97-3.02-11.88,0-27.47,15.1-27.47,24.16,0,3.12,2.14,4.48,4.58,4.48,3.9,0,8.67-3.21,12.47-6.92-.88,3.41,1.17,5.84,4.68,5.84,7.11,0,13.64-7.89,16.95-12.08M51.8,35.56c.39-.68.29-1.07-.58-1.17-.88-.1-2.14-.1-3.21-.1,6.14-8.77,10.42-17.24,10.42-23.28C58.42,4.38,53.06,0,41.28,0S11.95,3.7.56,8.09c-.68.29-.68.78-.29,1.27,1.07,1.27,2.53,2.24,4.09,3.02,2.53,1.27,5.65.88,8.87,0,6.33-1.75,18.12-5.85,27.37-5.85,6.33,0,8.77,2.14,8.77,5.65,0,5.16-4.09,13.25-10.13,22.02-8.86.19-20.94.78-27.08,1.95-.78.19-1.07.58-.49,1.27.78.88,1.85,1.66,2.92,2.14,1.66.68,3.12,1.07,5.65,1.27,4.19.29,9.25.19,14.13,0-9.45,12.47-21.53,25.13-30,31.76-.39.39-.29.78.2.88,3.02.39,6.33-.58,9.16-2.63,7.4-5.26,19.97-17.73,30-30.59,2.04-.29,3.51-.78,4.87-1.56,1.36-.88,2.63-2.14,3.22-3.12"/>
      <path class="cls-2" d="M155.74,54.86c.18-.36.06-.6-.36-.65-1.31-.12-2.98-.12-4.76-.18.48-.71.95-1.37,1.31-1.97.65-1.07.89-1.97.6-3.16-.18-.59-.48-1.07-.77-1.43-.3-.3-.48-.3-.77,0-1.49,1.85-3.22,4.23-4.88,6.61-2.62.06-5.42.18-7.21.36-.48.06-.71.3-.42.83.3.6.83,1.19,1.49,1.61.65.42,1.43.59,2.32.65.48,0,.95.06,1.49.06-.54.83-1.01,1.61-1.43,2.32-.48.83-.6,1.61-.6,2.26,0,.72.3,1.43.54,1.79.24.36.48.42.77.12,1.31-1.67,3.16-3.99,4.94-6.37.95,0,1.96,0,2.86-.06,1.55-.06,2.56-.36,3.33-.95.65-.48,1.31-1.31,1.55-1.85"/>
      <path class="cls-2" d="M249.58,54.55c2.44-4.97,7.89-9.84,10.81-9.84.88,0,.98.78.68,1.56-1.07,2.73-5.46,6.82-11.49,8.28M271.7,55.33c.78-.97.78-2.24.39-3.41-.19-.58-.58-.58-.97-.1-2.73,3.51-9.84,11.49-18.12,11.49-3.22,0-4.77-2.05-4.58-4.77,0-.59.1-1.17.29-1.75,10.33.39,18.51-5.65,18.9-11.01.2-2.82-1.56-4.77-5.36-4.77-10.81,0-22.21,11.11-22.21,19.78,0,4.87,3.41,8.38,9.64,8.38,10.81,0,18.8-9.64,22.02-13.83M244.62,55.33c.78-.97.78-2.24.39-3.41-.2-.58-.59-.58-.97-.1-3.02,3.9-5.55,5.84-8.09,5.84-.39,0-.68-.1-.97-.19,1.85-3.21,2.92-6.53,2.92-8.96,0-1.27-.49-1.95-1.36-1.95-2.92,0-6.33,4.68-6.33,8.96,0,.97.19,1.85.49,2.73-2.05,2.14-4.48,3.7-6.53,3.7-1.66,0-2.34-1.07-2.34-2.83,0-6.14,7.4-14.61,15.59-16.66.78-.19.78-.78.19-1.07-1.27-.58-2.73-.88-4.29-.88-10.42,0-20.46,9.94-20.46,19.97,0,4.97,3.41,7.79,7.31,7.79,4.77,0,9.25-3.31,12.47-7.5.78.49,1.66.78,2.73.78,4.19,0,7.4-3.9,9.25-6.24M149.15,92.06c-1.85,0-2.92-1.17-2.92-2.83,0-6.82,15.98-16.27,36.04-18.31-12.37,12.08-25.33,21.14-33.12,21.14M195.03,67.7c18.8-20.17,34.68-45.01,34.68-57.57,0-5.85-3.02-9.94-9.84-9.94-14.61,0-37.8,14.51-48.9,30-9.74,13.64-10.33,23.09-7.11,28.06,1.27,1.95,3.22,3.21,4.97,3.9.97.29,1.46-.1,1.07-1.07-2.34-6.24,1.07-17.14,7.89-26.4,10.03-13.93,30.3-28.54,40.52-28.54,2.44,0,3.41,1.75,3.41,3.9,0,11.49-16.46,36.53-34.78,56.01-20.55-.68-48.61,9.06-48.61,24.16,0,5.16,3.41,8.77,9.35,8.77,11.98,0,29.23-12.47,44.71-28.44,1.17,0,2.34.1,3.6.19,1.07.1,1.17-.49.78-1.17-.39-.68-1.07-1.36-1.75-1.85"/>
    </g>
  </g>
</svg>